# AST/ASF file generated using VICON BodyLanguage
# -----------------------------------------------
:version 1.10
:name VICON
:units
  mass 1.0
  length 0.45
  angle deg
:documentation
   .ast/.asf automatically generated from VICON data using
   VICON BodyBuilder and BodyLanguage model FoxedUp or BRILLIANT.MOD
:root
   order TX TY TZ RX RY RZ
   axis XYZ
   position 0 0 0  
   orientation 0 0 0 
:bonedata
  begin
     id 1 
     name lhipjoint
     direction 0.627457 -0.725269 0.283342 
     length 2.53237 
     axis 0 0 0  XYZ
  end
  begin
     id 2 
     name lfemur
     direction 0.34202 -0.939693 0  
     length 7.32496  
     axis 0 0 20  XYZ
    dof rx ry rz
    limits (-160.0 20.0)
           (-70.0 70.0)
           (-60.0 70.0)
  end
  begin
     id 3 
     name ltibia
     direction 0.34202 -0.939693 0   
     length 7.69674   
     axis 0 0 20   XYZ
    dof rx
    limits (-10.0 170.0)
  end
  begin
     id 4 
     name lfoot
     direction 0.127289 -0.349722 0.928166   
     length 1.8612   
     axis -90 7.62852e-016 20   XYZ
    dof rx rz
    limits (-45.0 90.0)
           (-70.0 20.0)
  end
  begin
     id 5 
     name ltoes
     direction 1.53561e-011 -4.21864e-011 1   
     length 0.925608   
     axis -90 7.62852e-016 20   XYZ
    dof rx
    limits (-90.0 20.0)
  end
  begin
     id 6 
     name rhipjoint
     direction -0.609094 -0.738725 0.288599   
     length 2.48624  
     axis 0 0 0  XYZ 
  end
  begin
     id 7 
     name rfemur
     direction -0.34202 -0.939693 0   
     length 7.44259   
     axis 0 0 -20   XYZ
    dof rx ry rz
    limits (-160.0 20.0)
           (-70.0 70.0)
           (-70.0 60.0)
  end
  begin
     id 8 
     name rtibia
     direction -0.34202 -0.939693 0   
     length 7.7781   
     axis 0 0 -20   XYZ
    dof rx
    limits (-10.0 170.0)
 end
 begin
     id 9 
     name rfoot
     direction -0.107015 -0.294021 0.949789   
     length 2.14741  
     axis -90 -7.62852e-016 -20   XYZ
    dof rx rz
    limits (-45.0 90.0)
           (-20.0 70.0)
  end
  begin
     id 10 
     name rtoes
     direction -1.53497e-011 -4.21924e-011 1   
     length 1.0706   
     axis -90 -7.62852e-016 -20   XYZ
    dof rx
    limits (-90.0 20.0)
  end
  begin
     id 11 
     name lowerback
     direction -0.0142066 0.998112 -0.0597545   
     length 1.86627   
     axis 0 0 0   XYZ
    dof rx ry rz
    limits (-20.0 45.0)
           (-30.0 30.0)
           (-30.0 30.0)
  end
  begin
     id 12 
     name upperback
     direction 0.00547294 0.999744 0.0219437   
     length 1.86272   
     axis 0 0 0   XYZ
    dof rx ry rz
    limits (-20.0 45.0)
           (-30.0 30.0)
           (-30.0 30.0)
  end
  begin
     id 13 
     name thorax
     direction 0.0116162 0.998704 0.0495538   
     length 1.8703   
     axis 0 0 0   XYZ
    dof rx ry rz
    limits (-20.0 45.0)
           (-30.0 30.0)
           (-30.0 30.0)
  end
  begin
     id 14 
     name lowerneck
     direction -0.0106574 0.998739 0.0490586   
     length 1.8074   
     axis 0 0 0   XYZ
    dof rx ry rz
    limits (-20.0 45.0)
           (-30.0 30.0)
           (-30.0 30.0)
  end
  begin
     id 15 
     name upperneck
     direction 0.030527 0.976587 -0.212944   
     length 1.80681   
     axis 0 0 0   XYZ
    dof rx ry rz
    limits (-20.0 45.0)
           (-30.0 30.0)
           (-30.0 30.0)
  end
  begin
     id 16
     name head
     direction 0.00869225 0.997035 -0.0764531  
     length 1.8313  
     axis 0 0 0   XYZ
    dof rx ry rz
    limits (-20.0 45.0)
           (-30.0 30.0)
           (-30.0 30.0)
  end
  begin
     id 17 
     name lclavicle
     direction 0.915958 0.399447 0.0382386  
     length 3.78965  
     axis 0 0 0   XYZ
    dof ry rz
    limits (-20.0 10.0)
           (0.0 20.0)
  end
  begin
     id 18 
     name lhumerus
     direction 1 -4.48967e-011 3.19303e-027   
     length 4.78095   
     axis -180 -30 -90   XYZ
    dof rx ry rz
    limits (-60.0 90.0)
           (-90.0 90.0)
           (-90.0 90.0)
  end
  begin
     id 19
     name lradius
     direction 1 -4.48967e-011 -3.77974e-027   
     length 3.58615   
     axis -180 -30 -90   XYZ
    dof rx
    limits (-10.0 170.0)
  end
  begin
     id 20
     name lwrist
     direction 1 -4.48927e-011 1.2807e-027   
     length 1.79307   
     axis 1.91374e-015 90 90   XYZ
    dof ry
    limits (-180.0 0.0)
 end
  begin
     id 21 
     name lhand
     direction 1 -4.49036e-011 2.5614e-027   
     length 0.659812   
     axis -1.63439e-015 90 90   XYZ
    dof rx rz
    limits (-90.0 90.0)
           (-45.0 45.0)
  end
  begin
     id 22 
     name lfingers
     direction 1 -4.49052e-011 5.1228e-027   
     length 0.531957   
     axis -3.26879e-015 90 90   XYZ
    dof rx
    limits (0.0 90.0)
  end
  begin
     id 23
     name lthumb
     direction 0.707107 -6.35012e-011 0.707107   
     length 0.763787   
     axis -90 45 2.85299e-015   XYZ
    dof rx rz
    limits (-45.0 45.0)
           (-45.0 45.0)
  end
  begin
     id 24 
     name rclavicle
     direction -0.895351 0.435135 0.0948887   
     length 3.70497  
     axis 0 0 0   XYZ 
    dof ry rz
    limits (-10.0 20.0)
           (-20.0 0.0)
  end
  begin
     id 25 
     name rhumerus
     direction -1 -4.48971e-011 2.38946e-027  
     length 4.48913   
     axis -180 30 90   XYZ
    dof rx ry rz
    limits (-90.0 60.0)
           (-90.0 90.0)
           (-90.0 90.0)
  end
  begin
     id 26 
     name rradius
     direction -1 -4.4895e-011 4.38668e-027   
     length 3.7051   
     axis -180 30 90   XYZ
    dof rx
    limits (-10.0 170.0)
  end
  begin
     id 27 
     name rwrist
     direction -1 -4.49007e-011 1.2807e-027   
     length 1.85255   
     axis 1.91374e-015 -90 -90   XYZ
    dof ry
    limits (-180.0 0.0)
  end
  begin
     id 28
     name rhand
     direction -1 -4.48851e-011 2.5614e-027   
     length 0.449136   
     axis -1.63439e-015 -90 -90   XYZ
    dof rx rz
    limits (-90.0 90.0)
           (-45.0 45.0)
  end
  begin
     id 29
     name rfingers
     direction -1 -4.49128e-011 5.1228e-027   
     length 0.362105   
     axis -3.26879e-015 -90 -90   XYZ
    dof rx
    limits (0.0 90.0)
  end
  begin
     id 30
     name rthumb
     direction -0.707107 -6.34851e-011 0.707107   
     length 0.519912   
     axis -90 -45 -2.85299e-015   XYZ
    dof rx rz
    limits (-45.0 45.0)
           (-45.0 45.0)
  end
:hierarchy
  begin
    root lhipjoint rhipjoint lowerback
    lhipjoint lfemur
    lfemur ltibia
    ltibia lfoot
    lfoot ltoes
    rhipjoint rfemur
    rfemur rtibia
    rtibia rfoot
    rfoot rtoes
    lowerback upperback
    upperback thorax
    thorax lowerneck lclavicle rclavicle
    lowerneck upperneck
    upperneck head
    lclavicle lhumerus
    lhumerus lradius
    lradius lwrist
    lwrist lhand lthumb
    lhand lfingers
    rclavicle rhumerus
    rhumerus rradius
    rradius rwrist
    rwrist rhand rthumb
    rhand rfingers
  end

#!OML:ASF I:\Actors\actors\Patient Classification 2\Patient 1\Session 1\actor1.ASF
:FULLY-SPECIFIED
:DEGREES
36
root -1.18054 18.2098 5.5513 0.721362 -4.94356 -3.70399
lowerback 0.516087 2.25075 1.20641
upperback -1.13083 3.00828 -0.679428
thorax -1.34868 1.48671 -1.41885
lowerneck -11.7332 -3.10051 2.19779
upperneck 21.3523 -5.86301 4.68265
head 8.69351 -2.1069 0.569626
rclavicle -1.57537e-014 -1.59028e-015
rhumerus -47.1253 -1.58504 -89.2121
rradius 39.9978
rwrist 16.167
rhand -7.90574 -25.8636
rfingers 7.12502
rthumb 17.9995 -55.0507
lclavicle -1.57537e-014 -1.59028e-015
lhumerus -37.8502 8.3038 86.4749
lradius 31.7441
lwrist -15.9009
lhand -9.92416 -33.0413
lfingers 7.12502
lthumb 16.0567 -3.68661
rfemur 6.94051 2.79002 19.9563
rtibia -7.95139e-015
rfoot -16.2559 -9.71853
rtoes 7.56345
lfemur 15.1504 -6.84434 -13.6673
ltibia -15.5716
lfoot -6.67822 23.0822
ltoes -3.32033
37
root -1.18406 18.2084 5.55279 0.699678 -4.9206 -3.72054
lowerback 0.524862 2.25343 1.2116
upperback -1.12109 3.01207 -0.67303
thorax -1.34357 1.48868 -1.41537
lowerneck -11.7651 -3.12643 2.23196
upperneck 21.3648 -5.90188 4.6531
head 8.70232 -2.1245 0.54919
rclavicle 2.33199e-014 -3.97569e-015
rhumerus -47.1088 -1.58096 -89.2108
rradius 39.9724
rwrist 16.2337
rhand -7.64289 -25.9796
rfingers 7.12502
rthumb 18.2524 -55.1433
lclavicle 2.33199e-014 -3.97569e-015
lhumerus -37.8299 8.24555 86.5084
lradius 31.7563
lwrist -15.8687
lhand -9.99622 -33.0397
lfingers 7.12502
lthumb 15.9873 -3.6794
rfemur 6.9759 2.76516 19.9849
rtibia -1.59028e-015
rfoot -16.2619 -9.69795
rtoes 7.59106
lfemur 15.1994 -6.88068 -13.6442
ltibia -15.6112
lfoot -6.67288 23.0921
ltoes -3.31341
38
root -1.18795 18.2073 5.55422 0.673213 -4.87651 -3.69441
lowerback 0.551576 2.25562 1.18474
upperback -1.12034 3.01471 -0.690413
thorax -1.35812 1.49006 -1.41939
lowerneck -11.7741 -3.14243 2.24787
upperneck 21.3637 -5.93263 4.67387
head 8.70452 -2.13536 0.549995
rclavicle 4.19933e-015 3.97569e-015
rhumerus -47.1118 -1.57438 -89.2213
rradius 39.9587
rwrist 16.3313
rhand -7.25319 -26.1069
rfingers 7.12502
rthumb 18.6273 -55.2351
lclavicle 4.19933e-015 3.97569e-015
lhumerus -37.7326 8.38729 86.4372
lradius 31.5379
lwrist -16.0749
lhand -10.0903 -33.1981
lfingers 7.12502
lthumb 15.8967 -3.83057
rfemur 7.02019 2.71863 19.9708
rtibia 2.06736e-014
rfoot -16.2733 -9.67493
rtoes 7.66382
lfemur 15.2337 -6.83002 -13.6541
ltibia -15.6362
lfoot -6.64232 23.0134
ltoes -3.52073
39
root -1.19091 18.2071 5.55495 0.660342 -4.81932 -3.69584
lowerback 0.567735 2.2544 1.18781
upperback -1.12111 3.0132 -0.698731
thorax -1.36743 1.48914 -1.43032
lowerneck -11.8008 -3.14564 2.27708
upperneck 21.3817 -5.94753 4.68215
head 8.71551 -2.13798 0.545777
rclavicle 1.2424e-016 -9.54166e-015
rhumerus -47.1117 -1.56683 -89.2272
rradius 39.929
rwrist 16.3879
rhand -7.41135 -26.0294
rfingers 7.12502
rthumb 18.4752 -55.172
lclavicle 1.2424e-016 -9.54166e-015
lhumerus -37.4991 8.95667 86.2037
lradius 30.9706
lwrist -16.6829
lhand -10.175 -33.5007
lfingers 7.12502
lthumb 15.8152 -4.12673
rfemur 7.04816 2.65984 19.9814
rtibia 4.77083e-015
rfoot -16.2808 -9.64318
rtoes 7.84428
lfemur 15.236 -6.76112 -13.6259
ltibia -15.6379
lfoot -6.63711 22.9485
ltoes -3.95257
40
root -1.19313 18.2074 5.55631 0.659365 -4.76911 -3.70123
lowerback 0.559813 2.25239 1.18646
upperback -1.1215 3.0105 -0.691625
thorax -1.36392 1.48788 -1.42192
lowerneck -11.8306 -3.13439 2.32608
upperneck 21.4033 -5.9308 4.62134
head 8.72459 -2.13112 0.51853
rclavicle 5.95112e-015 3.97569e-015
rhumerus -47.1017 -1.50636 -89.2276
rradius 39.8864
rwrist 16.3055
rhand -7.6947 -25.9023
rfingers 7.12502
rthumb 18.2026 -55.0706
lclavicle 5.95112e-015 3.97569e-015
lhumerus -37.4923 8.50596 86.4192
lradius 31.0838
lwrist -16.195
lhand -10.1778 -33.2315
lfingers 7.12502
lthumb 15.8124 -3.8573
rfemur 7.05851 2.60948 19.9879
rtibia -1.90833e-014
rfoot -16.2801 -9.60853
rtoes 7.93498
lfemur 15.2289 -6.76942 -13.6072
ltibia -15.6347
lfoot -6.60687 22.9334
ltoes -4.01062
41
root -1.19516 18.2075 5.55831 0.673257 -4.73063 -3.68944
lowerback 0.542482 2.25272 1.1744
upperback -1.12838 3.01062 -0.691743
thorax -1.36186 1.48805 -1.41474
lowerneck -11.8909 -3.11753 2.32555
upperneck 21.458 -5.9096 4.60401
head 8.75357 -2.1199 0.513883
rclavicle 2.32827e-014 -1.03368e-014
rhumerus -47.0991 -1.48559 -89.2033
rradius 39.8612
rwrist 16.2018
rhand -7.70028 -25.8183
rfingers 7.12502
rthumb 18.1972 -54.9871
lclavicle 2.32827e-014 -1.03368e-014
lhumerus -37.6844 8.08488 86.6157
lradius 31.6565
lwrist -15.751
lhand -10.056 -32.8067
lfingers 7.12502
lthumb 15.9297 -3.44185
rfemur 7.05692 2.57021 19.9786
rtibia 6.36111e-015
rfoot -16.2884 -9.5873
rtoes 7.9325
lfemur 15.2151 -6.80342 -13.6136
ltibia -15.6444
lfoot -6.55698 22.9565
ltoes -4.05192
42
root -1.19642 18.2073 5.55912 0.703776 -4.708 -3.70195
lowerback 0.515085 2.25064 1.20483
upperback -1.13069 3.00792 -0.695056
thorax -1.34724 1.48648 -1.43389
lowerneck -11.9423 -3.11522 2.30245
upperneck 21.5007 -5.91431 4.63631
head 8.77962 -2.11813 0.526971
rclavicle -1.71079e-014 0
rhumerus -47.1047 -1.49051 -89.191
rradius 39.8905
rwrist 16.1618
rhand -7.61736 -25.8263
rfingers 7.12502
rthumb 18.277 -54.9876
lclavicle -1.71079e-014 0
lhumerus -37.6882 8.03405 86.6417
lradius 31.806
lwrist -15.6737
lhand -10.0577 -32.6766
lfingers 7.12502
lthumb 15.9281 -3.31162
rfemur 7.03785 2.54515 20.0033
rtibia -1.90833e-014
rfoot -16.2947 -9.61817
rtoes 7.82382
lfemur 15.1846 -6.82167 -13.5884
ltibia -15.658
lfoot -6.57566 22.9551
ltoes -3.96168
43
root -1.19747 18.2075 5.55974 0.723877 -4.68907 -3.71597
lowerback 0.490844 2.24114 1.24132
upperback -1.12574 2.99542 -0.695917
thorax -1.32709 1.48005 -1.45373
lowerneck -11.9044 -3.11411 2.32754
upperneck 21.4511 -5.90871 4.61853
head 8.75421 -2.11775 0.51832
rclavicle -2.17545e-014 -1.59028e-015
rhumerus -47.1156 -1.46407 -89.1994
rradius 39.9345
rwrist 16.1515
rhand -7.6379 -25.7375
rfingers 7.12502
rthumb 18.2572 -54.9007
lclavicle -2.17545e-014 -1.59028e-015
lhumerus -37.6348 8.11887 86.5989
lradius 31.7715
lwrist -15.7118
lhand -10.0908 -32.6659
lfingers 7.12502
lthumb 15.8962 -3.29838
rfemur 7.02746 2.52445 20.0267
rtibia 9.54166e-015
rfoot -16.3198 -9.6292
rtoes 7.84644
lfemur 15.1687 -6.82056 -13.5615
ltibia -15.6745
lfoot -6.58879 22.8991
ltoes -3.63016
44
root -1.19918 18.2074 5.56161 0.722931 -4.66778 -3.71699
lowerback 0.468126 2.22761 1.23434
upperback -1.1102 2.97721 -0.67907
thorax -1.30027 1.47144 -1.43095
lowerneck -11.883 -3.10462 2.34948
upperneck 21.4182 -5.88732 4.5778
head 8.73652 -2.11171 0.503889
rclavicle -6.70898e-016 -1.43125e-014
rhumerus -47.0787 -1.41582 -89.1847
rradius 39.913
rwrist 16.1437
rhand -7.80114 -25.5633
rfingers 7.12502
rthumb 18.1002 -54.7411
lclavicle -6.70898e-016 -1.43125e-014
lhumerus -37.6109 8.13345 86.6085
lradius 31.7728
lwrist -15.6988
lhand -10.1104 -32.6266
lfingers 7.12502
lthumb 15.8773 -3.25752
rfemur 7.04052 2.50256 20.0305
rtibia 4.77083e-015
rfoot -16.3491 -9.59407
rtoes 7.85775
lfemur 15.188 -6.81072 -13.5536
ltibia -15.7044
lfoot -6.53213 22.892
ltoes -3.6767
45
root -1.2005 18.2071 5.56339 0.720889 -4.63989 -3.73408
lowerback 0.45638 2.21533 1.23856
upperback -1.10172 2.96102 -0.655346
thorax -1.28656 1.4636 -1.40809
lowerneck -11.892 -3.09038 2.38344
upperneck 21.446 -5.8627 4.51645
head 8.7442 -2.10267 0.480143
rclavicle 2.51835e-014 -1.11319e-014
rhumerus -47.0455 -1.3772 -89.1615
rradius 39.8786
rwrist 16.1629
rhand -7.9299 -25.531
rfingers 7.12502
rthumb 17.9763 -54.7203
lclavicle 2.51835e-014 -1.11319e-014
lhumerus -37.5965 8.09689 86.6472
lradius 31.7773
lwrist -15.6718
lhand -10.1514 -32.5768
lfingers 7.12502
lthumb 15.8378 -3.2046
rfemur 7.0503 2.47431 20.0507
rtibia 3.18055e-015
rfoot -16.3449 -9.58012
rtoes 7.77089
lfemur 15.2103 -6.81234 -13.5301
ltibia -15.7398
lfoot -6.48938 22.9054
ltoes -3.81098
46
root -1.20094 18.2067 5.5641 0.724308 -4.60957 -3.7588
lowerback 0.475214 2.20827 1.27494
upperback -1.11097 2.95232 -0.651192
thorax -1.30529 1.45868 -1.4251
lowerneck -11.9078 -3.08361 2.41156
upperneck 21.4906 -5.85677 4.48955
head 8.76064 -2.0986 0.466669
rclavicle -3.52967e-014 9.54166e-015
rhumerus -47.0683 -1.37629 -89.1598
rradius 39.9028
rwrist 16.2082
rhand -7.97476 -25.5597
rfingers 7.12502
rthumb 17.9331 -54.7529
lclavicle -3.52967e-014 9.54166e-015
lhumerus -37.59 8.08163 86.6461
lradius 31.7584
lwrist -15.6587
lhand -10.2272 -32.6006
lfingers 7.12502
lthumb 15.7649 -3.22262
rfemur 7.05018 2.44392 20.0776
rtibia 9.54166e-015
rfoot -16.334 -9.57047
rtoes 7.86798
lfemur 15.2163 -6.84025 -13.5001
ltibia -15.7635
lfoot -6.4658 22.8691
ltoes -3.7161
47
root -1.2006 18.2057 5.56448 0.725193 -4.59173 -3.77773
lowerback 0.49687 2.20546 1.30673
upperback -1.11018 2.94929 -0.645765
thorax -1.31543 1.45677 -1.43816
lowerneck -11.9515 -3.09405 2.38588
upperneck 21.5303 -5.87473 4.50682
head 8.78388 -2.10514 0.473797
rclavicle -1.26228e-014 7.95139e-015
rhumerus -47.0664 -1.35553 -89.1661
rradius 39.95
rwrist 16.176
rhand -7.98925 -25.6718
rfingers 7.12502
rthumb 17.9192 -54.8663
lclavicle -1.26228e-014 7.95139e-015
lhumerus -37.5425 8.10152 86.6373
lradius 31.6913
lwrist -15.673
lhand -10.2947 -32.7329
lfingers 7.12502
lthumb 15.6999 -3.34977
rfemur 7.05089 2.42626 20.097
rtibia 6.36111e-015
rfoot -16.3179 -9.57809
rtoes 7.72608
lfemur 15.2117 -6.90091 -13.4836
ltibia -15.758
lfoot -6.46342 22.8717
ltoes -3.46886
